<svg xmlns="http://www.w3.org/2000/svg" id="Layer_1" data-name="Layer 1" viewBox="0 0 687.61 258.96"><defs><style>.cls-1,.cls-4{fill:#272626;}.cls-2{fill:#684b9e;}.cls-3{fill:#fff;}.cls-4{font-size:44.75px;font-family:Generica-Bold, Generica;font-weight:700;letter-spacing:0.04em;}</style></defs><path class="cls-1" d="M155.66,29.31A89.43,89.43,0,1,0,89.49,179h0A89.44,89.44,0,0,0,155.66,29.31ZM89.51,141.54h0a52.05,52.05,0,1,1,52.05-52A52.09,52.09,0,0,1,89.49,141.54Z"></path><path class="cls-1" d="M192.55,3.15V44.61A34.58,34.58,0,0,0,179,72.1V89.5H141.52V72.1a72.29,72.29,0,0,1,51-68.95Z"></path><path class="cls-1" d="M282.62,0a89.39,89.39,0,0,0-69,32.6c-1.38,1.62-2.67,3.32-3.9,5.07a88.93,88.93,0,0,0-16.57,51.82,90.7,90.7,0,0,0,.72,11.36A89.48,89.48,0,1,0,282.62,0Zm0,141.54A52.12,52.12,0,0,1,231.2,97.4a52.44,52.44,0,0,1,0-15.82,52,52,0,1,1,51.42,60Z"></path><path class="cls-1" d="M124.89,212.3v37.45H54.12a54.11,54.11,0,1,1,0-108.21H89.49V179H54.12a16.66,16.66,0,1,0,0,33.32Z"></path><path class="cls-1" d="M176.33,249.75H124.89V212.3A54.12,54.12,0,0,1,176.33,249.75Z"></path><rect class="cls-2" x="411.29" y="0.01" width="251.72" height="178.98" rx="53.57"></rect><rect class="cls-3" x="442.91" y="65.05" width="25.88" height="86.31"></rect><rect class="cls-3" x="504.75" y="79.55" width="0.02" height="21.67"></rect><rect class="cls-3" x="514.86" y="79.31" width="25.88" height="21.91"></rect><rect class="cls-3" x="568.11" y="27.64" width="25.88" height="123.72"></rect><path class="cls-3" d="M631.39,65.05H605.51A11.54,11.54,0,0,0,594,53.53V27.65A37.45,37.45,0,0,1,631.39,65.05Z"></path><path class="cls-3" d="M480.31,27.65V53.53A11.53,11.53,0,0,0,468.8,65.05H442.91A37.45,37.45,0,0,1,480.31,27.65Z"></path><rect class="cls-3" x="550.68" y="27.65" width="42.6" height="25.88"></rect><rect class="cls-3" x="514.86" y="27.63" width="25.88" height="25.81"></rect><rect class="cls-3" x="480.31" y="27.63" width="24.44" height="25.81"></rect><rect class="cls-3" x="514.86" y="79.31" width="25.88" height="72.05"></rect><path class="cls-3" d="M504.77,79.55v25.88a36,36,0,0,0-36,36H442.91a61.92,61.92,0,0,1,61.84-61.85Z"></path><path class="cls-1" d="M684,0,681.3,9.14h0L678.52,0H675V12.13h2.24V3h.08l2.77,9.18h2.32L685.24,3h.08v9.18h2.29V0ZM663,0V2.07h4V12.13h2.44V2.07h4V0Z"></path><text class="cls-4" transform="translate(225.38 246.07)">Don't set get fit</text></svg>