<?xml version="1.0" standalone="no"?>
<!DOCTYPE svg PUBLIC "-//W3C//DTD SVG 20010904//EN"
 "http://www.w3.org/TR/2001/REC-SVG-20010904/DTD/svg10.dtd">
<svg version="1.0" xmlns="http://www.w3.org/2000/svg"
 width="572.000000pt" height="572.000000pt" viewBox="0 0 572.000000 572.000000"
 preserveAspectRatio="xMidYMid meet">
<metadata>
Created by potrace 1.14, written by Peter Selinger 2001-2017
</metadata>
<g transform="translate(0.000000,572.000000) scale(0.100000,-0.100000)"
fill="#000000" stroke="none">
<path d="M1115 5317 c-20 -63 -32 -118 -26 -120 3 -2 130 -3 283 -3 152 1 274
-2 272 -5 -2 -4 -24 -10 -50 -14 -25 -3 -56 -8 -67 -11 -12 -2 -46 -7 -76 -10
-30 -3 -63 -7 -73 -9 -16 -3 -142 -12 -287 -19 -21 -1 -27 -10 -47 -76 -13
-41 -21 -77 -18 -80 3 -3 100 -5 214 -5 115 0 203 -3 197 -7 -30 -17 -278 -50
-392 -52 l-40 -1 -22 -80 c-11 -44 -20 -82 -18 -85 2 -3 76 -6 164 -5 150 1
184 -7 96 -21 -21 -3 -47 -7 -58 -10 -39 -7 -92 -14 -151 -19 -33 -2 -63 -8
-68 -13 -6 -6 -48 -140 -48 -155 0 -1 65 -2 145 -2 80 0 141 -2 137 -6 -8 -7
-120 -28 -192 -36 -25 -2 -54 -6 -65 -8 -11 -2 -25 -4 -31 -4 -10 -1 -28 -53
-40 -120 -3 -13 -6 -28 -7 -34 -1 -8 35 -11 110 -12 61 0 109 -2 107 -5 -3 -3
-57 -14 -121 -25 l-116 -20 -22 -83 c-12 -46 -19 -84 -16 -86 3 -2 43 -3 88
-2 118 3 100 -9 -50 -33 -27 -5 -52 -12 -56 -17 -7 -7 -41 -131 -41 -147 0 -2
27 -3 60 -2 33 1 60 -2 60 -6 0 -4 -29 -12 -65 -19 l-65 -12 -15 -53 c-9 -29
-18 -61 -20 -71 -3 -11 -18 -68 -35 -129 -16 -60 -32 -119 -35 -130 -2 -11
-17 -68 -33 -127 -16 -60 -26 -109 -23 -109 20 -4 614 -3 621 1 8 5 178 620
202 733 6 26 16 48 22 48 6 1 157 3 336 4 179 1 330 3 335 4 12 1 11 0 85 274
28 104 49 191 46 195 -3 3 -155 5 -336 5 -182 0 -333 4 -336 9 -3 4 2 34 11
66 10 31 18 62 19 67 1 6 13 52 26 103 24 90 25 92 55 93 16 0 218 1 448 1
303 0 419 3 422 12 1 6 12 47 24 91 12 44 37 137 56 208 19 70 37 143 41 161
l6 35 -762 0 c-574 -1 -762 -3 -765 -12z"/>
<path d="M2920 5324 c0 -4 -69 -263 -246 -922 -24 -90 -44 -169 -44 -176 0 -9
14 -9 68 0 107 19 341 10 432 -16 93 -27 173 -70 226 -122 45 -43 47 -43 62
17 6 22 81 301 166 621 86 319 156 586 156 592 0 9 -106 12 -410 12 -225 0
-410 -2 -410 -6z"/>
<path d="M3917 4968 c-54 -200 -97 -367 -97 -371 0 -4 97 -7 215 -5 118 1 217
-1 220 -4 3 -3 -35 -156 -84 -339 -49 -184 -137 -512 -196 -729 -58 -217 -108
-403 -111 -412 -5 -17 19 -18 400 -18 l405 0 14 53 c9 28 79 291 157 582 78
292 157 586 175 655 19 69 39 144 45 168 8 33 15 42 33 43 12 0 113 0 224 0
l202 -1 10 38 c6 20 48 181 95 357 48 175 86 325 86 332 0 11 -164 13 -848 13
l-849 0 -96 -362z"/>
<path d="M2713 4160 c-233 -34 -459 -177 -556 -351 -97 -173 -111 -334 -43
-506 l24 -61 -47 -18 c-69 -26 -199 -92 -260 -132 -123 -82 -246 -238 -290
-369 -96 -286 -17 -508 222 -622 113 -54 205 -73 367 -77 252 -5 443 40 607
142 l51 33 19 -21 c34 -39 137 -99 208 -121 59 -19 91 -22 205 -21 77 1 159 8
190 16 l55 13 32 120 c18 66 46 169 62 228 l29 109 -86 -7 c-92 -7 -169 5
-211 32 l-23 15 38 31 c159 129 327 345 433 555 l31 62 -22 4 c-19 4 -174 24
-408 52 -25 3 -52 7 -61 10 -11 3 -25 -14 -49 -58 -78 -149 -199 -305 -218
-282 -5 5 -36 53 -70 107 l-62 97 27 11 c185 70 358 219 433 373 157 320 49
569 -274 631 -81 16 -263 18 -353 5z m147 -385 c38 -19 50 -43 50 -96 0 -83
-70 -175 -162 -213 l-36 -15 -36 52 c-62 89 -61 169 1 231 54 54 127 70 183
41z m-410 -1036 c89 -143 110 -183 99 -191 -49 -34 -126 -60 -192 -65 -126 -9
-203 28 -226 111 -19 70 16 184 77 250 32 34 112 87 122 81 4 -3 58 -86 120
-186z"/>
<path d="M1365 2725 c-336 -46 -636 -197 -891 -450 -244 -242 -377 -485 -444
-815 -25 -121 -30 -302 -11 -395 44 -217 174 -412 348 -527 277 -182 749 -196
1137 -34 223 94 395 214 572 398 152 160 247 313 328 531 35 95 79 247 91 315
l5 32 -619 0 c-581 0 -620 -1 -625 -17 -3 -10 -33 -121 -67 -248 -34 -126 -64
-238 -66 -248 -5 -16 8 -17 166 -17 94 0 171 -3 171 -6 0 -17 -45 -76 -78
-102 -58 -45 -118 -64 -214 -68 -270 -11 -376 160 -294 478 65 253 208 431
394 488 163 51 323 0 377 -119 10 -23 21 -41 24 -41 23 0 263 89 251 93 -8 3
-47 15 -86 27 -180 55 -315 172 -374 325 -20 50 -24 78 -23 170 0 70 6 132 16
171 19 70 20 74 10 73 -5 -1 -48 -7 -98 -14z"/>
<path d="M3992 2729 c-40 -5 -114 -18 -165 -30 -102 -23 -297 -95 -297 -109 0
-5 6 -8 13 -5 6 2 40 6 74 10 48 4 62 3 58 -7 -2 -7 -36 -132 -75 -278 -39
-146 -73 -273 -76 -282 -10 -33 -195 -67 -342 -62 -93 3 -216 30 -274 60 -16
8 -31 14 -33 12 -14 -16 -79 -127 -107 -183 -144 -289 -193 -628 -124 -858 97
-326 342 -531 706 -592 124 -21 324 -16 460 10 578 113 1085 580 1239 1140 33
119 43 185 46 311 7 241 -73 458 -226 612 -139 141 -307 220 -529 251 -84 11
-255 11 -348 0z m84 -759 c69 -20 137 -88 158 -159 20 -68 20 -112 0 -209 -31
-153 -124 -300 -237 -375 -127 -84 -294 -104 -407 -46 -110 55 -153 186 -116
351 31 139 105 267 201 345 119 97 265 131 401 93z"/>
</g>
</svg>
