<svg width="102" height="102" viewBox="0 0 102 102" fill="none" xmlns="http://www.w3.org/2000/svg">
<g id="octicon:goal-24">
<path id="Vector" d="M85.7325 28.6884H77.8232L58.4177 48.0854C59.0861 49.7888 59.1476 51.6703 58.5918 53.4137C58.036 55.157 56.8969 56.6558 55.366 57.6581C53.8351 58.6603 52.0058 59.1049 50.1857 58.917C48.3656 58.7291 46.6657 57.9202 45.3718 56.6264C44.078 55.3325 43.2691 53.6326 43.0812 51.8125C42.8933 49.9923 43.3378 48.163 44.3401 46.6321C45.3423 45.1012 46.8411 43.9621 48.5845 43.4064C50.3278 42.8506 52.2094 42.9121 53.9127 43.5804L73.314 24.1792V16.2699C73.3144 15.2116 73.7347 14.1966 74.4827 13.4479L81.8352 6.09543C81.971 5.95808 82.1418 5.86053 82.3291 5.81333C82.5164 5.76613 82.7131 5.77109 82.8977 5.82768C83.276 5.93818 83.5565 6.25268 83.633 6.63943L85.588 16.4187L95.363 18.3737C95.7455 18.4502 96.06 18.7307 96.1705 19.1089C96.2263 19.2927 96.2313 19.4881 96.1849 19.6744C96.1385 19.8608 96.0424 20.0311 95.907 20.1672L88.5502 27.5197C88.1804 27.8901 87.7412 28.184 87.2577 28.3846C86.7742 28.5851 86.2559 28.6884 85.7325 28.6884Z" fill="#E60000"/>
<path id="Vector_2" d="M11.1562 51C11.1562 61.5672 15.3541 71.7017 22.8262 79.1738C30.2984 86.646 40.4328 90.8438 51 90.8438C56.2324 90.8438 61.4135 89.8132 66.2475 87.8109C71.0816 85.8085 75.4739 82.8736 79.1738 79.1738C82.8736 75.474 85.8085 71.0816 87.8108 66.2476C89.8132 61.4135 90.8438 56.2324 90.8438 51C90.8438 47.1835 90.3083 43.4945 89.3095 40.0053C89.111 39.2041 89.231 38.3572 89.6442 37.6427C90.0575 36.9282 90.7318 36.4019 91.5252 36.1745C92.3187 35.9471 93.1694 36.0363 93.8984 36.4234C94.6274 36.8105 95.1778 37.4653 95.4337 38.25C96.5983 42.3045 97.2188 46.58 97.2188 51C97.2188 76.5255 76.5255 97.2188 51 97.2188C25.4745 97.2188 4.78125 76.5255 4.78125 51C4.78125 25.4745 25.4745 4.78127 51 4.78127C55.3138 4.77702 59.602 5.37627 63.75 6.56202C64.1544 6.67547 64.5325 6.86774 64.8624 7.12778C65.1922 7.38782 65.4675 7.7105 65.6722 8.07726C65.877 8.44403 66.0072 8.84765 66.0555 9.26492C66.1037 9.68219 66.069 10.1049 65.9534 10.5087C65.8377 10.9125 65.6434 11.2895 65.3816 11.618C65.1197 11.9464 64.7956 12.2199 64.4277 12.4226C64.0598 12.6254 63.6555 12.7534 63.238 12.7994C62.8204 12.8454 62.3979 12.8084 61.9948 12.6905C58.4192 11.6694 54.7185 11.153 51 11.1563C40.4328 11.1563 30.2984 15.3541 22.8262 22.8262C15.3541 30.2984 11.1562 40.4328 11.1562 51Z" fill="#E60000"/>
<path id="Vector_3" d="M30.2799 50.9991C30.2918 53.814 30.8772 56.5969 32.0005 59.178C33.1238 61.759 34.7614 64.0841 36.8132 66.0111C38.8651 67.9382 41.2881 69.4268 43.9345 70.3862C46.5809 71.3455 49.395 71.7554 52.2051 71.5909C55.0152 71.4263 57.7623 70.6908 60.2786 69.4291C62.7949 68.1675 65.0277 66.4062 66.8406 64.2528C68.6535 62.0994 70.0085 59.5992 70.8229 56.9046C71.6373 54.2101 71.8939 51.3779 71.5771 48.5809C71.4879 48.0144 71.5536 47.4343 71.7671 46.9021C71.9807 46.3699 72.3343 45.9054 72.7904 45.5578C73.2465 45.2102 73.7881 44.9924 74.3579 44.9275C74.9276 44.8627 75.5044 44.9531 76.0269 45.1894C77.0937 45.6654 77.8119 46.6811 77.9054 47.8456C78.5653 53.4354 77.4673 59.0919 74.7642 64.0289C72.061 68.966 67.8869 72.9382 62.822 75.3935C57.7572 77.8488 52.0532 78.6652 46.503 77.7292C40.9527 76.7932 35.8319 74.1514 31.8524 70.1709C27.874 66.1947 25.2314 61.079 24.2913 55.5333C23.3512 49.9877 24.1602 44.2869 26.6059 39.2217C29.0516 34.1565 33.0129 29.9778 37.9405 27.2653C42.868 24.5529 48.5175 23.441 54.1054 24.0839C54.5278 24.1231 54.9382 24.2462 55.3124 24.446C55.6866 24.6459 56.0172 24.9184 56.2847 25.2477C56.5523 25.5769 56.7514 25.9563 56.8704 26.3635C56.9894 26.7707 57.026 27.1976 56.9779 27.6191C56.9298 28.0406 56.798 28.4482 56.5903 28.8182C56.3827 29.1881 56.1032 29.5128 55.7684 29.7734C55.4336 30.0339 55.0501 30.225 54.6405 30.3354C54.2309 30.4458 53.8033 30.4733 53.3829 30.4164C50.4803 30.0808 47.5395 30.3628 44.7536 31.244C41.9676 32.1252 39.3995 33.5855 37.2178 35.5292C35.0361 37.4729 33.2901 39.8561 32.0944 42.5222C30.8987 45.1883 30.2803 48.0771 30.2799 50.9991Z" fill="#E60000"/>
</g>
</svg>
